<?xml version="1.0" standalone="no"?>
<!DOCTYPE svg PUBLIC "-//W3C//DTD SVG 1.1//EN" "http://www.w3.org/Graphics/SVG/1.1/DTD/svg11.dtd">
<svg xmlns="http://www.w3.org/2000/svg">
<metadata>Copyright (C) 2022 by original authors @ fontello.com</metadata>
<defs>
<font id="storefront-icons" horiz-adv-x="1000" >
<font-face font-family="storefront-icons" font-weight="400" font-stretch="normal" units-per-em="1000" ascent="850" descent="-150" />
<missing-glyph horiz-adv-x="1000" />
<glyph glyph-name="tiktok" unicode="&#xe800;" d="M875 440a410 410 0 0 0-240 77v-349a318 318 0 1 0-274 314v-175a146 146 0 1 1 102-139v682l172 0a237 237 0 0 1 4-43h0a239 239 0 0 1 105-157 237 237 0 0 1 131-39z" horiz-adv-x="875" />

<glyph glyph-name="search" unicode="&#xf002;" d="M458 767c207 0 375-169 375-375s-168-375-375-375-375 168-375 375 169 375 375 375z m0-84c-161 0-291-130-291-291 0-162 130-292 291-292 162 0 292 130 292 292 0 161-130 291-292 291z m235-485c0 0 0 0 0 0 12 0 23-4 30-12l182-181c7-8 12-19 12-31 0-23-18-41-41-41-12 0-23 5-30 12l-182 182c-7 7-12 18-12 30 0 23 18 41 41 41z" horiz-adv-x="1000" />

<glyph glyph-name="heart" unicode="&#xf004;" d="M281 770c69 5 143-21 204-83l15-14 15 14c105 106 277 106 383 0 105-105 105-277 0-383l-44-44-324-324c-8-8-18-12-30-12s-22 4-29 12l-325 324-44 44c-61 62-87 136-83 204 4 69 36 132 83 179 47 48 110 79 179 83z m5-83c-46-2-91-24-125-58s-56-80-59-125c-2-46 13-94 59-141l44-44 295-295 295 295 44 44c74 74 74 192 0 266-74 73-192 73-265 0l-44-45c-8-7-18-12-30-12s-22 5-29 12l-45 45c-46 46-94 61-140 58z" horiz-adv-x="1000" />

<glyph glyph-name="user" unicode="&#xf007;" d="M333 267h334c114 0 208-94 208-209v-83c0 0 0 0 0-1 0-23-19-41-42-41s-41 18-41 41c0 1 0 1 0 1v83c0 70-56 125-125 125h-334c-69 0-125-55-125-125v-83c0 0 0 0 0-1 0-23-18-41-41-41s-42 18-42 41c0 1 0 1 0 1v83c0 115 94 209 208 209z m167 500c115 0 208-94 208-209 0-114-93-208-208-208s-208 94-208 208c0 115 93 209 208 209z m0-84c-69 0-125-55-125-125 0-69 56-125 125-125s125 56 125 125c0 70-55 125-125 125z" horiz-adv-x="1000" />

<glyph glyph-name="check" unicode="&#xf00c;" d="M833 642c0 0 0 0 1 0 23 0 41-19 41-42 0-11-4-22-12-29l-458-459c-8-7-18-12-30-12s-22 5-29 12l-209 209c-8 7-13 18-13 30 0 23 19 41 42 41 12 0 23-5 30-12l179-179 429 429c7 7 17 12 29 12z" horiz-adv-x="1000" />

<glyph glyph-name="times" unicode="&#xf00d;" d="M749 642c1 0 1 0 1 0 23 0 42-19 42-42 0-11-5-22-12-29l-500-500c-8-8-19-13-31-13-23 0-41 18-41 41 0 12 5 23 13 31l500 500c7 7 17 12 28 12z m-499 0c11 0 22-5 30-12l500-500c7-8 12-19 12-31 0-23-18-41-41-41-12 0-23 5-30 13l-500 500c-8 7-13 18-13 29 0 23 19 42 42 42z" horiz-adv-x="1000" />

<glyph glyph-name="home" unicode="&#xf015;" d="M498 808c1 0 1 0 2 0 10 0 19-3 26-8l375-292c9-8 16-20 16-33v-458c0-69-57-125-125-125h-584c-68 0-125 56-125 125v458c0 13 7 25 16 33l375 292c7 5 15 8 24 8z m2-94l-333-259v-438c0-24 18-42 41-42h584c23 0 41 18 41 42v438z m-125-322h250c23 0 42-19 42-42v-417c0 0 0 0 0 0 0-23-19-42-42-42s-42 19-42 42c0 0 0 0 0 0v375h-166v-375c0 0 0 0 0 0 0-23-19-42-42-42s-42 19-42 42c0 0 0 0 0 0v417c0 23 19 42 42 42z" horiz-adv-x="1000" />

<glyph glyph-name="lock" unicode="&#xf023;" d="M208 433h584c68 0 125-56 125-125v-291c0-69-57-125-125-125h-584c-68 0-125 56-125 125v291c0 69 57 125 125 125z m0-83c-23 0-41-18-41-42v-291c0-24 18-42 41-42h584c24 0 41 18 41 42v291c0 24-17 42-41 42h-584z m292 458c61 0 123-20 171-62s79-108 79-188v-166c0 0 0-1 0-1 0-23-19-42-42-42s-41 19-41 42c0 0 0 1 0 1v166c0 59-21 98-51 125-31 28-73 42-116 42s-85-14-116-42c-30-27-51-66-51-125v-166c0 0 0-1 0-1 0-23-18-42-41-42s-42 19-42 42c0 0 0 1 0 1v166c0 80 31 145 79 188s110 62 171 62z" horiz-adv-x="1000" />

<glyph glyph-name="barcode" unicode="&#xf02a;" d="M63 631l0-562 62 0 0 562z m125 0l0-562 187 0 0 562z m250 0l0-562 62 0 0 562z m125 0l0-562 125 0 0 562z m187 0l0-562 63 0 0 562z m125 0l0-562 63 0 0 562z" horiz-adv-x="1000" />

<glyph glyph-name="tag" unicode="&#xf02b;" d="M83 808h417c12 0 22-4 30-12l357-358c0 0 0 0 1 0 48-48 48-128 0-176l-1 0-298-299c-49-49-129-49-177 0l-358 358c-8 7-12 18-12 29v417c0 23 18 41 41 41z m42-83v-358l346-345c16-17 42-17 59 0l298 299c17 16 17 42 1 58l-346 346h-358z m167-125h0c0 0 1 0 1 0 23 0 41-19 41-42s-18-41-41-41c0 0-1 0-1 0h0c0 0-1 0-1 0-23 0-42 18-42 41s19 42 42 42c0 0 1 0 1 0z" horiz-adv-x="1000" />

<glyph glyph-name="print" unicode="&#xf02f;" d="M250 808h500c23 0 42-18 42-41v-292c0 0 0 0 0-1 0-23-19-41-42-41s-42 18-42 41c0 1 0 1 0 1v250h-416v-250c0 0 0 0 0-1 0-23-19-41-42-41s-42 18-42 41c0 1 0 1 0 1v292c0 23 19 41 42 41z m-83-291h666c69 0 125-57 125-125v-209c0-68-56-125-125-125h-83c0 0 0 0-1 0-23 0-41 19-41 42s18 42 41 42c1 0 1 0 1 0h83c24 0 42 18 42 41v209c0 23-18 41-42 41h-666c-24 0-42-18-42-41v-209c0-23 18-41 42-41h83c0 0 0 0 1 0 23 0 41-19 41-42s-18-42-41-42c-1 0-1 0-1 0h-83c-69 0-125 57-125 125v209c0 68 56 125 125 125z m83-209h500c23 0 42-18 42-41v-334c0-23-19-41-42-41h-500c-23 0-42 18-42 41v334c0 23 19 41 42 41z m42-83v-250h416v250h-416z" horiz-adv-x="1000" />

<glyph glyph-name="edit" unicode="&#xf044;" d="M167 725h291c1 0 1 0 1 0 23 0 42-19 42-42s-19-41-42-41c0 0 0 0-1 0h-291c-24 0-42-18-42-42v-583c0-24 18-42 42-42h583c24 0 42 18 42 42v291c0 1 0 1 0 1 0 23 18 42 41 42s42-19 42-42c0 0 0 0 0-1v-291c0-69-56-125-125-125h-583c-69 0-125 56-125 125v583c0 69 56 125 125 125z m673 90c33-2 63-17 85-40s38-52 40-85c2-34-11-70-40-99l-395-395c-6-6-12-10-20-11l-167-42c-3-1-6-1-10-1-23 0-41 18-41 41 0 4 0 7 1 10l42 167c1 8 5 14 11 20l395 395c29 29 65 42 99 40z m-5-83c-11 0-21-2-35-16l-387-387-22-88 88 22 387 387c14 14 16 24 16 35-1 11-6 22-16 31-9 10-20 15-31 16z" horiz-adv-x="1000" />

<glyph glyph-name="play" unicode="&#xf04b;" d="M207 767c1 0 1 0 1 0 9 0 16-3 23-7l583-375c12-7 19-20 19-35 0-15-7-28-19-35l-583-375c-7-4-14-7-23-7-23 0-41 19-41 42v0 750l0 0c0 23 18 41 40 42z m43-118v-598l465 299z" horiz-adv-x="1000" />

<glyph glyph-name="forward" unicode="&#xf04e;" d="M540 683c1 0 1 0 2 0 9 0 18-3 25-8l375-292c10-8 16-20 16-33s-6-25-16-33l-375-291c-7-6-16-9-25-9-23 0-42 18-42 41v584l0 0c0 22 18 41 40 41z m43-126v-413l266 206z m-501 126c0 0 1 0 1 0 10 0 19-3 26-8l375-292c10-8 16-20 16-33s-6-25-16-33l-375-291c-7-6-16-9-26-9-23 0-41 18-41 41v584l0 0c0 22 18 41 40 41z m43-126v-413l266 206z" horiz-adv-x="1000" />

<glyph glyph-name="chevron-left" unicode="&#xf053;" d="M624 642c1 0 1 0 1 0 23 0 42-19 42-42 0-11-5-22-12-29l-221-221 221-220c7-8 12-19 12-31 0-23-18-41-41-41-12 0-23 5-30 13l-250 250c-8 7-13 18-13 29s5 22 13 30l250 250c7 7 17 12 28 12z" horiz-adv-x="1000" />

<glyph glyph-name="chevron-right" unicode="&#xf054;" d="M375 642c11 0 22-5 30-12l250-250c7-8 12-18 12-30s-5-22-12-29l-250-250c-8-8-19-13-31-13-23 0-41 18-41 41 0 12 5 23 13 31l220 220-220 221c-8 7-13 18-13 29 0 23 19 42 42 42z" horiz-adv-x="1000" />

<glyph glyph-name="times-circle" unicode="&#xf057;" d="M500 808c253 0 458-205 458-458s-205-458-458-458-458 205-458 458 205 458 458 458z m0-83c-208 0-375-167-375-375s167-375 375-375 375 167 375 375-167 375-375 375z m124-208c1 0 1 0 1 0 23 0 42-19 42-42 0-11-5-22-12-29l-250-250c-8-8-19-13-31-13-23 0-41 18-41 41 0 12 5 23 13 31l250 250c7 7 17 12 28 12z m-249 0c11 0 22-5 30-12l250-250c7-8 12-19 12-31 0-23-18-41-41-41-12 0-23 5-30 13l-250 250c-8 7-13 18-13 29 0 23 19 42 42 42z" horiz-adv-x="1000" />

<glyph glyph-name="check-circle" unicode="&#xf058;" d="M533 809c51-4 102-17 154-40 15-6 25-21 25-39 0-23-18-41-41-41-7 0-13 1-18 4-173 77-338 18-438-99-100-117-133-289-29-448 103-159 273-199 420-155s269 170 269 359v38c0 1 0 1 0 1 0 23 19 42 42 42s41-19 41-42c0 0 0 0 0-1v-38c0-225-149-386-328-439s-392 1-514 190c-123 189-85 405 36 547 91 106 230 173 381 161z m383-84c0 0 1 0 1 0 23 0 42-18 42-41 0-12-5-23-13-30l-416-417c-8-8-18-12-30-12s-22 4-29 12l-125 125c-8 7-13 18-13 30 0 23 18 42 41 42 12 0 23-5 31-13l95-96 387 388c8 7 18 12 29 12z" horiz-adv-x="1000" />

<glyph glyph-name="question-circle" unicode="&#xf059;" d="M500 725c-207 0-375-168-375-375 0-207 168-375 375-375 207 0 375 168 375 375 0 207-168 375-375 375z m0-62c173 0 313-140 313-313 0-173-140-312-313-312-173 0-312 139-312 312 0 173 139 313 312 313z m0-125c-69 0-125-57-125-125l63 0c0 34 27 62 62 62 35 0 63-28 63-62 0-24-16-46-39-53l-12-4c-26-9-43-33-43-60l0-40 62 0 0 40 13 4c48 16 81 62 81 113 0 68-56 125-125 125z m-31-313l0-62 62 0 0 62z" horiz-adv-x="1000" />

<glyph glyph-name="info-circle" unicode="&#xf05a;" d="M500 808c253 0 458-205 458-458s-205-458-458-458-458 205-458 458 205 458 458 458z m0-83c-208 0-375-167-375-375s167-375 375-375 375 167 375 375-167 375-375 375z m-1-333c1 0 1 0 1 0 23 0 42-18 42-41 0-1 0-1 0-1v-167c0 0 0 0 0 0 0-23-19-42-42-42s-42 19-42 42c0 0 0 0 0 0v167c0 0 0 0 0 1 0 22 19 41 41 41z m1 166h0c1 0 1 0 1 0 23 0 42-18 42-41s-19-42-42-42c0 0 0 0-1 0h0c0 0 0 0-1 0-23 0-41 19-41 42s18 41 41 41c1 0 1 0 1 0z" horiz-adv-x="1000" />

<glyph glyph-name="arrow-left" unicode="&#xf060;" d="M208 392h584c0 0 0 0 0 0 23 0 42-19 42-42s-19-42-42-42c0 0 0 0 0 0h-584c0 0 0 0 0 0-23 0-42 19-42 42s19 42 42 42c0 0 0 0 0 0z m291 292c1 0 1 0 1 0 23 0 42-19 42-42 0-12-5-22-12-30l-263-262 263-262c7-8 12-18 12-30 0-23-18-42-41-42-12 0-23 5-30 13l-292 292c-8 7-12 18-12 29s4 22 12 30l292 291c7 8 17 12 28 13z" horiz-adv-x="1000" />

<glyph glyph-name="arrow-right" unicode="&#xf061;" d="M208 392h584c0 0 0 0 0 0 23 0 42-19 42-42s-19-42-42-42c0 0 0 0 0 0h-584c0 0 0 0 0 0-23 0-42 19-42 42s19 42 42 42c0 0 0 0 0 0z m292 292c11 0 22-5 30-13l291-291c8-8 12-18 12-30s-4-22-12-29l-291-292c-8-8-19-13-31-13-23 0-41 19-41 42 0 12 5 22 13 30l262 262-262 262c-8 8-13 18-13 30 0 23 19 42 42 42z" horiz-adv-x="1000" />

<glyph glyph-name="arrow-up" unicode="&#xf062;" d="M499 684c1 0 1 0 1 0 23 0 42-19 42-42 0 0 0 0 0 0v-584c0 0 0 0 0 0 0-23-19-42-42-42s-42 19-42 42c0 0 0 0 0 0v584c0 0 0 0 0 0 0 23 19 42 41 42z m0-1c1 0 1 0 1 0 12 0 22-4 30-12l291-291c8-8 13-19 13-31 0-23-19-41-42-41-11 0-22 5-30 13l-262 262-262-262c-8-8-18-13-30-13-23 0-42 18-42 41 0 12 5 23 13 31l292 291c7 8 17 12 28 12z" horiz-adv-x="1000" />

<glyph glyph-name="arrow-down" unicode="&#xf063;" d="M499 684c1 0 1 0 1 0 23 0 42-19 42-42 0 0 0 0 0 0v-584c0 0 0 0 0 0 0-23-19-42-42-42s-42 19-42 42c0 0 0 0 0 0v584c0 0 0 0 0 0 0 23 19 42 41 42z m-291-292c12 0 22-5 30-12l262-263 262 263c8 7 19 12 30 12 23 0 42-18 42-41 0-12-5-23-13-30l-291-292c-8-8-18-12-30-12s-22 4-29 12l-292 292c-8 7-13 18-13 29 0 23 19 42 42 42z" horiz-adv-x="1000" />

<glyph glyph-name="plus" unicode="&#xf067;" d="M499 684c1 0 1 0 1 0 23 0 42-19 42-42 0 0 0 0 0 0v-584c0 0 0 0 0 0 0-23-19-42-42-42s-42 19-42 42c0 0 0 0 0 0v584c0 0 0 0 0 0 0 23 19 42 41 42z m-291-292h584c0 0 0 0 0 0 23 0 42-19 42-42s-19-42-42-42c0 0 0 0 0 0h-584c0 0 0 0 0 0-23 0-42 19-42 42s19 42 42 42c0 0 0 0 0 0z" horiz-adv-x="1000" />

<glyph glyph-name="gift" unicode="&#xf06b;" d="M166 392c0 0 0 0 1 0 23 0 41-18 41-41 0-1 0-1 0-1v-375h584v375c0 0 0 0 0 1 0 23 18 41 41 41s42-18 42-41c0-1 0-1 0-1v-417c0-23-19-41-42-41h-666c-23 0-42 18-42 41v417c0 0 0 0 0 1 0 22 18 41 41 41z m-83 208h834c23 0 41-19 41-42v-208c0-23-18-42-41-42h-834c-23 0-41 19-41 42v208c0 23 18 42 41 42z m42-83v-125h750v125h-750z m374 84c1 0 1 0 1 0 23 0 42-19 42-42 0 0 0 0 0-1v-625c0 0 0 0 0 0 0-23-19-42-42-42s-42 19-42 42c0 0 0 0 0 0v625c0 1 0 1 0 1 0 23 19 41 41 42z m-186 207c92 0 152-67 185-125 32-59 43-116 43-116 0-3 1-6 1-9 0-23-19-41-42-41h-187c-46 0-85 18-110 46s-36 64-36 100 11 71 36 99 64 46 110 46z m0-83c-25 0-38-8-47-19-10-10-16-27-16-43s6-33 16-44c9-11 22-19 47-19h127c-5 17-4 22-16 42-25 46-58 83-111 83z m375 83c45 0 84-18 109-46s36-64 36-99-11-72-36-100-64-46-109-46h-188c-23 0-42 18-42 41 0 3 1 6 1 9 0 0 11 57 44 116 32 58 92 125 185 125z m0-83c-54 0-87-37-112-83-12-20-11-25-16-42h128c24 0 37 8 47 19 9 11 15 27 15 44s-6 33-15 43c-10 11-23 19-47 19z" horiz-adv-x="1000" />

<glyph glyph-name="exclamation-triangle" unicode="&#xf071;" d="M500 749l-27-46-375-650-27-47 858 0-27 47-375 650z m0-125l320-555-640 0z m-31-211l0-188 62 0 0 188z m0-219l0-63 62 0 0 63z" horiz-adv-x="1000" />

<glyph glyph-name="chevron-up" unicode="&#xf077;" d="M499 517c1 0 1 0 1 0 12 0 22-5 30-12l250-250c7-8 12-19 12-31 0-23-18-41-41-41-12 0-23 5-30 13l-221 220-220-220c-8-8-19-13-31-13-23 0-41 18-41 41 0 12 5 23 13 31l250 250c7 7 17 12 28 12z" horiz-adv-x="1000" />

<glyph glyph-name="chevron-down" unicode="&#xf078;" d="M250 517c11 0 22-5 30-12l220-221 221 221c7 7 18 12 30 12 23 0 41-18 41-41 0-12-5-23-12-30l-250-250c-8-8-18-13-30-13s-22 5-29 13l-250 250c-8 7-13 18-13 29 0 23 19 42 42 42z" horiz-adv-x="1000" />

<glyph glyph-name="shopping-cart" unicode="&#xf07a;" d="M375 58c46 0 83-37 83-83s-37-83-83-83-83 37-83 83 38 83 83 83z m458 0c46 0 84-37 84-83s-38-83-84-83-83 37-83 83 38 83 83 83z m-791 792h166c21 0 37-14 41-33l35-175h674c23 0 42-19 42-42 0-3 0-5-1-8l-66-349c0 0 0-1 0-1-12-59-65-101-125-100h-404c-60-1-113 41-125 100l-69 343c-1 5-2 9-2 14l-34 168h-132c0 0-1 0-1 0-23 0-42 18-42 41s19 42 42 42c0 0 1 0 1 0z m259-292l60-299v0 0c4-20 21-34 42-34 0 0 0 0 0 0 0 0 0 0 0 0h405c1 0 1 0 1 0 0 0 0 0 0 0 21 0 38 14 42 34l57 299h-607z" horiz-adv-x="1000" />

<glyph glyph-name="linkedin" unicode="&#xf08c;" d="M667 558c160 0 291-131 291-291v-292c0-23-18-42-41-42h-167c-23 0-42 19-42 42v292c0 23-18 41-41 41-24 0-42-18-42-41v-292c0-23-19-42-42-42h-166c-23 0-42 19-42 42v292c0 160 131 291 292 291z m0-83c-116 0-209-93-209-208v-250h84v250c0 68 56 125 125 125 68 0 125-57 125-125v-250h83v250c0 115-93 208-208 208z m-584 42h167c23 0 42-19 42-42v-500c0-23-19-42-42-42h-167c-23 0-41 19-41 42v500c0 23 18 42 41 42z m42-84v-416h83v416h-83z m42 375c68 0 125-56 125-125 0-68-57-125-125-125-69 0-125 57-125 125 0 69 56 125 125 125z m0-83c-24 0-42-18-42-42 0-23 18-41 42-41 23 0 41 18 41 41 0 24-18 42-41 42z" horiz-adv-x="1000" />

<glyph glyph-name="phone" unicode="&#xf095;" d="M171 808h125c62 1 116-45 125-107 0 0 0 0 0-1 5-36 14-73 27-107v0c17-46 6-98-28-132 0 0 0 0-1 0l-27-28c49-77 114-142 191-191l28 27c0 1 0 1 0 1 34 34 86 45 132 28h0c34-13 71-22 107-27 1 0 1 0 1 0 62-9 109-64 107-127v-124c1-73-63-131-136-125 0 0 0 0-1 0-134 15-263 61-377 134-106 68-195 157-263 263 0 0 0 0 0 0-74 114-120 244-134 380 0 0 0 0 0 0s0 0 0 0c-7 73 51 136 124 136z m0-83c-25 0-43-20-41-45 13-122 54-240 121-343 0 0 0 0 0 0 61-96 142-177 238-237 0 0 0 0 0 0 103-67 219-108 341-122 25-2 45 17 45 42v0 0 125c0 0 0 0 0 1s0 0 0 0c1 22-14 39-36 42h1c-44 6-86 17-127 32h0 0c-15 6-32 2-44-10l-52-52c-8-8-18-13-30-13-7 0-14 2-20 6-111 63-203 155-266 266-4 6-6 13-6 20 0 12 5 22 13 30l52 52c12 12 16 29 10 44v0 0c-15 41-26 83-32 127v-1c-3 21-20 36-41 36h-1 0-125z" horiz-adv-x="1000" />

<glyph glyph-name="twitter" unicode="&#xf099;" d="M959 767c23-1 41-19 41-42 0-3 0-7-1-10-14-58-45-110-84-155 0-7 2-15 2-22v0 0c0-253-124-442-298-535-175-93-399-92-598 19-12 7-21 21-21 36 0 23 19 42 42 42 0 0 1 0 1 0 72-3 140 17 204 47-141 90-195 218-200 326-6 126 40 227 40 227 6 15 21 25 38 25 14 0 27-7 34-18 70-99 181-158 300-167 1 102 65 181 146 212 74 28 162 16 229-42 35 12 70 27 100 49 7 5 15 8 24 8 1 0 1 0 1 0z m-241-86c-28 6-56 3-83-7-53-20-94-67-93-137 0 0 0 0 0 0s0-1 0-1v-41l0 0c0-23-18-41-41-42-136-4-264 53-357 148-8-34-16-76-14-124 5-104 46-220 220-297 15-7 25-21 25-38 0-15-7-27-18-35-46-31-96-54-149-69 132-33 264-18 371 39 149 79 254 234 254 460 0 9-1 18-2 27-1 3-1 5-1 8 0 12 5 22 12 30 11 10 18 22 26 33-10-3-18-11-28-14-4-1-8-1-12-1-13 0-24 5-32 14-23 26-50 41-78 47z" horiz-adv-x="1000" />

<glyph glyph-name="facebook" unicode="&#xf09a;" d="M625 808h125c23 0 42-18 42-41v-167c0-23-19-42-42-42h-125v-83h125l0 0c23 0 42-19 42-42 0-3-1-6-2-10l-41-166c-5-18-21-32-41-32h0-83v-292c0-23-19-41-42-41h-166c-23 0-42 18-42 41v292h-83c-23 0-42 19-42 42v166c0 23 19 42 42 42h83v83c0 138 112 250 250 250z m0-83c-92 0-167-74-167-167v-125c0-23-18-41-41-41h-84v-84h84c23 0 41-18 41-41v-292h84v292c0 23 18 41 41 41h93l21 84h-114c-23 0-41 18-41 41v125c0 46 38 84 83 84h83v83h-83z" horiz-adv-x="1000" />

<glyph glyph-name="credit-card" unicode="&#xf09d;" d="M125 725h750c69 0 125-56 125-125v-500c0-68-56-125-125-125h-750c-68 0-125 57-125 125v500c0 69 57 125 125 125z m0-83c-24 0-42-18-42-42v-500c0-24 18-42 42-42h750c24 0 42 18 42 42v500c0 24-18 42-42 42h-750z m-83-167h916c1 0 1 0 1 0 23 0 42-19 42-42s-19-41-42-41c0 0 0 0-1 0h-916c0 0-1 0-1 0-23 0-42 18-42 41s19 42 42 42c0 0 1 0 1 0z" horiz-adv-x="1000" />

<glyph glyph-name="filter" unicode="&#xf0b0;" d="M83 767h834l0 0c23 0 41-19 41-42 0-10-3-20-9-27l-324-382v-341c0-23-19-42-42-42-6 0-13 2-18 5l-167 83c-14 7-23 21-23 37v258l-323 382c-7 7-10 17-10 27 0 23 18 42 41 42h0z m90-84l276-325c6-7 9-17 9-27v0-247l84-42v289l0 0c0 10 3 20 10 27l275 325h-654z" horiz-adv-x="1000" />

<glyph glyph-name="copy" unicode="&#xf0c5;" d="M458 517h375c69 0 125-57 125-125v-375c0-69-56-125-125-125h-375c-68 0-125 56-125 125v375c0 68 57 125 125 125z m0-84c-23 0-41-17-41-41v-375c0-24 18-42 41-42h375c24 0 42 18 42 42v375c0 24-18 41-42 41h-375z m-291 375h375c68 0 125-56 125-125v-41c0 0 0-1 0-1 0-23-19-42-42-42s-42 19-42 42c0 0 0 1 0 1v41c0 24-18 42-41 42h-375c-24 0-42-18-42-42v-375c0-23 18-41 42-41h41c1 0 1 0 1 0 23 0 42-19 42-42s-19-42-42-42c0 0 0 0-1 0h-41c-69 0-125 57-125 125v375c0 69 56 125 125 125z" horiz-adv-x="1000" />

<glyph glyph-name="bars" unicode="&#xf0c9;" d="M125 392h750c0 0 0 0 1 0 23 0 41-19 41-42s-18-42-41-42c-1 0-1 0-1 0h-750c0 0 0 0-1 0-23 0-41 19-41 42s18 42 41 42c1 0 1 0 1 0z m0 250h750c0 0 0 0 1 0 23 0 41-19 41-42s-18-42-41-42c-1 0-1 0-1 0h-750c0 0 0 0-1 0-23 0-41 19-41 42s18 42 41 42c1 0 1 0 1 0z m0-500h750c0 0 0 0 1 0 23 0 41-19 41-42s-18-42-41-42c-1 0-1 0-1 0h-750c0 0 0 0-1 0-23 0-41 19-41 42s18 42 41 42c1 0 1 0 1 0z" horiz-adv-x="1000" />

<glyph glyph-name="truck" unicode="&#xf0d1;" d="M42 767h625c23 0 41-19 41-42v-542c0-23-18-41-41-41h-625c-23 0-42 18-42 41v542c0 23 19 42 42 42z m41-84v-458h542v458h-542z m584-125h166c12 0 22-4 30-12l125-125c7-7 12-18 12-29v-209c0-23-19-41-42-41h-291c-23 0-42 18-42 41v334c0 23 19 41 42 41z m41-83v-250h209v149l-101 101h-108z m-479-250c80 0 146-66 146-146 0-80-66-146-146-146-80 0-146 66-146 146 0 80 66 146 146 146z m0-83c-35 0-62-28-62-63s27-62 62-62 63 27 63 62-28 63-63 63z m542 83c80 0 146-66 146-146 0-80-66-146-146-146-80 0-146 66-146 146 0 80 66 146 146 146z m0-83c-35 0-63-28-63-63s28-62 63-62 62 27 62 62-27 63-62 63z" horiz-adv-x="1000" />

<glyph glyph-name="pinterest" unicode="&#xf0d2;" d="M503 725c-159 0-315-106-315-277 0-109 61-171 98-171 15 0 24 43 24 55 0 15-37 45-37 105 0 124 95 212 217 212 106 0 184-59 184-169 0-82-33-236-140-236-38 0-71 27-71 67 0 59 37 115 37 176 0 102-142 83-142-40 0-26 4-55 15-79-21-91-60-238-60-333 0-29 4-58 7-87 5-6 2-5 10-2 78 107 71 137 106 277 19-37 68-56 107-56 165 0 238 160 238 304 0 154-132 254-278 254z" horiz-adv-x="1000" />

<glyph glyph-name="sort" unicode="&#xf0dc;" d="M500 738l-22-22-250-250-53-53 650 0-52 53-250 250z m0-89l174-174-348 0z m-325-361l53-54 250-250 22-22 23 22 250 250 52 54z m151-63l348 0-174-174z" horiz-adv-x="1000" />

<glyph glyph-name="envelope" unicode="&#xf0e0;" d="M167 725h666c69 0 125-56 125-125v-500c0-69-56-125-125-125h-666c-69 0-125 56-125 125v500c0 69 56 125 125 125z m0-83c-23 0-42-19-42-42v-500c0-23 19-42 42-42h666c23 0 42 19 42 42v500c0 23-19 42-42 42h-666z m-83 0c9 0 17-3 23-8l393-275 393 275c7 5 15 8 25 8 23 0 41-18 41-41 0-15-7-28-18-35l-417-292c-7-4-15-7-24-7-9 0-17 3-24 7l-417 292c-11 7-18 20-18 34 0 23 19 42 42 42 0 0 1 0 1 0z" horiz-adv-x="1000" />

<glyph glyph-name="bell" unicode="&#xf0f3;" d="M500 808c155 0 279-122 288-274 2-5 4-11 4-17 0 0 0 0 0 0 0-140 29-226 57-277 28-51 49-64 49-64 11-7 19-20 19-34 0-23-19-42-42-42h-750c-23 0-42 19-42 42 0 14 8 27 19 34 0 0 21 13 49 64 28 51 57 137 57 277 0 160 131 291 292 291z m0-83c-116 0-208-93-208-208 0-152-33-253-68-317-6-11-7-7-13-17h579c-7 10-8 6-14 17-34 62-65 162-67 307 0 3-1 6-1 9 0 1 0 1 0 1 0 115-92 208-208 208z m-74-708c1 0 1 0 2 0 15 0 29-8 36-21 17-30 55-30 72 0 7 12 21 21 36 21 23 0 42-19 42-42 0-8-2-15-6-21-47-81-169-81-216 0-4 6-6 14-6 21 0 23 18 41 40 42z" horiz-adv-x="1000" />

<glyph glyph-name="youtube" unicode="&#xf167;" d="M500 725c0 0 72 0 153-2 82-2 167-5 215-17 1 0 1 0 2 0 54-15 96-59 110-113 0-1 0-2 0-3 14-76 21-153 20-230v0c0-76-6-151-20-226 0-1 0-1 0-2-14-55-56-98-110-114 0 0-1 0-1 0-49-13-134-16-215-18-82-3-154-3-154-3s-72 0-154 3-166 5-215 18c0 0 0 0 0 0-53 15-95 56-110 109-1 1-1 3-1 4-14 76-21 152-20 229v0 1c0 76 6 152 20 227 0 1 0 2 0 3 14 55 56 98 110 113 1 0 1 0 1 0 49 14 134 16 215 19s154 2 154 2z m0-83c0 0-71 0-151-3-80-2-173-9-196-15-25-7-45-27-51-53-13-69-19-140-19-210v-1 0c0-71 6-141 19-211 7-24 26-44 51-50 22-6 116-13 196-16 80-2 151-2 151-2s71 0 151 2c80 3 174 10 196 16 26 7 45 27 51 52 13 69 19 139 19 209v1 0c0 71-6 142-19 212-6 25-25 45-51 53-24 5-116 11-196 14-80 2-151 2-151 2z m-93-104c7 0 14-2 20-5l239-136c13-7 22-21 22-37s-9-29-22-36l-239-136c-6-3-13-5-21-5-23 0-41 18-41 41v273c0 23 18 41 41 41 1 0 1 0 1 0z m41-113v-129l114 64z" horiz-adv-x="1000" />

<glyph glyph-name="instagram" unicode="&#xf16d;" d="M292 808h416c138 0 250-112 250-250v-416c0-138-112-250-250-250h-416c-138 0-250 112-250 250v416c0 138 112 250 250 250z m0-83c-93 0-167-74-167-167v-416c0-93 74-167 167-167h416c93 0 167 74 167 167v416c0 93-74 167-167 167h-416z m240-167c91-14 162-85 176-176 14-97-39-179-112-216s-172-31-241 39-76 167-39 241 119 126 216 112z m-12-82c-62 9-107-23-130-68-23-45-21-100 23-145 45-44 100-46 145-23 45 23 77 68 68 130-9 55-51 97-106 106z m209 145h1c0 0 0 0 0 0 23 0 42-19 42-42s-19-41-42-41c0 0 0 0 0 0h-1c0 0 0 0 0 0-23 0-42 18-42 41s19 42 42 42c0 0 0 0 0 0z" horiz-adv-x="1000" />

<glyph glyph-name="windows" unicode="&#xf17a;" d="M844 694l-688-94 0-500 688-94 0 688z m-63-72l0-241-312 0 0 199 312 42z m-375-51l0-190-187 0 0 165 187 25z m-187-252l187 0 0-190-187 25 0 165z m250 0l312 0 0-241-312 42 0 199z" horiz-adv-x="1000" />

<glyph glyph-name="google" unicode="&#xf1a0;" d="M584 369c0 61 100 67 100 187 0 88-61 130-67 134l61 0 60 35-196 0c-199 0-231-140-231-186 0-69 54-155 162-155 10 0 20 1 32 2-2-5-10-22-10-38 0-33 21-55 28-67-118 1-261-51-261-165 0-42 36-141 205-141 193 0 251 119 251 186 0 128-134 149-134 208z m-66 42c-67 0-124 85-124 176 0 27 13 105 87 105 97 0 120-142 120-181 0-9 6-100-83-100z m-4-395c-62 0-169 27-169 120 0 33 19 118 183 118 9 0 16-1 22-1 34-26 105-63 105-130 0-31-18-107-141-107z" horiz-adv-x="1000" />

<glyph glyph-name="history" unicode="&#xf1da;" d="M500 725c-130 0-245-66-312-167l0 105-63 0 0-219 219 0 0 62-113 0c53 93 153 157 269 157 173 0 313-140 313-313 0-173-140-312-313-312-173 0-312 139-312 312l-63 0c0-207 168-375 375-375 207 0 375 168 375 375 0 207-168 375-375 375z m-31-125l0-281 219 0 0 62-157 0 0 219z" horiz-adv-x="1000" />

<glyph glyph-name="wifi" unicode="&#xf1eb;" d="M502 475c113 0 227-39 320-116 9-7 15-19 15-32 0-23-19-42-42-42-10 0-19 4-27 10-154 129-378 129-533 0-7-6-17-10-27-10-23 0-41 19-41 42 0 13 6 25 15 32 92 77 206 116 320 116z m-2 208c167 0 335-59 468-177 9-7 15-19 15-31 0-23-19-42-42-42-11 0-20 4-28 11-236 208-590 208-826 0-8-7-17-11-28-11-23 0-41 19-41 42 0 12 5 24 14 31 133 118 301 177 468 177z m0-416c59 0 119-18 169-54 11-8 18-20 18-34 0-23-19-42-42-42-9 0-17 3-24 8-72 51-169 51-241 0-7-5-16-8-25-8-23 0-41 19-41 42 0 14 7 26 17 34 51 36 110 54 169 54z m0-209h0c1 0 1 0 1 0 23 0 42-18 42-41s-19-42-42-42c0 0 0 0-1 0h0c0 0 0 0-1 0-23 0-41 19-41 42s18 41 41 41c1 0 1 0 1 0z" horiz-adv-x="1000" />

<glyph glyph-name="whatsapp" unicode="&#xf232;" d="M766 616c-71 70-165 109-264 109-206 0-374-167-374-373 0-66 17-130 50-187l-53-193 198 52c54-30 116-46 179-46l0 0c205 0 373 168 373 374 0 99-39 193-109 264z m-264-575l0 0c-56 0-111 15-158 43l-12 7-117-31 31 115-7 12c-31 49-48 106-48 165 0 171 139 310 311 310 83 0 161-32 219-91 59-59 91-137 91-219 0-172-139-311-310-311z m170 233c-9 4-55 27-64 30-8 3-15 5-21-5-6-9-24-30-29-36-6-6-11-7-21-3-9 5-39 15-75 47-27 24-46 55-52 64-5 10 0 15 4 19 5 4 10 11 15 17 4 5 6 9 9 15 3 6 1 12-1 17-2 4-21 50-29 69-7 18-15 16-21 16-5 0-11 0-18 0-6 0-16-2-24-12-9-9-33-31-33-77 0-46 33-91 38-97 5-6 66-100 159-141 23-9 40-15 54-19 22-7 42-6 58-4 18 3 56 22 63 44 8 22 8 41 6 45-3 4-9 6-18 11z" horiz-adv-x="1000" />

<glyph glyph-name="shopping-bag" unicode="&#xf290;" d="M250 808h500l0 0c14 0 26-6 33-16l125-167c6-7 9-16 9-25v0-583c0-69-57-125-125-125h-584c-68 0-125 56-125 125v583l0 0c0 9 3 18 9 25l125 167c7 10 19 16 33 16h0z m21-83l-104-139v-569c0-24 18-42 41-42h584c23 0 41 18 41 42v569l-104 139h-458z m-146-83h750c0 0 0 0 1 0 23 0 41-19 41-42s-18-42-41-42c-1 0-1 0-1 0h-750c0 0 0 0-1 0-23 0-41 19-41 42s18 42 41 42c1 0 1 0 1 0z m208-166c0 0 0 0 0 0 23 0 42-19 42-42 0 0 0 0 0-1 0-45 15-73 38-93s55-32 87-32 64 11 87 32 38 48 38 93c0 1 0 1 0 1 0 23 19 42 42 42s41-19 41-42c0 0 0 0 0-1 0-66-26-120-66-156-40-35-91-52-142-52s-102 17-142 52c-40 36-66 90-66 156 0 1 0 1 0 1 0 23 18 41 41 42z" horiz-adv-x="1000" />

<glyph glyph-name="shopping-basket" unicode="&#xf291;" d="M500 753l-278-278-159 0 0-187 39 0 87-291 6-22 610 0 7 22 86 291 40 0 0 187-160 0z m0-88l190-190-379 0z m-375-252l750 0 0-63-23 0-7-22-87-290-516 0-87 290-7 22-23 0z m219-94l0-219 62 0 0 219z m125 0l0-219 62 0 0 219z m125 0l0-219 62 0 0 219z" horiz-adv-x="1000" />

<glyph glyph-name="hashtag" unicode="&#xf292;" d="M167 517h666c1 0 1 0 1 0 23 0 42-19 42-42s-19-42-42-42c0 0 0 0-1 0h-666c0 0-1 0-1 0-23 0-42 19-42 42s19 42 42 42c0 0 1 0 1 0z m0-250h666c1 0 1 0 1 0 23 0 42-19 42-42s-19-42-42-42c0 0 0 0-1 0h-666c0 0-1 0-1 0-23 0-42 19-42 42s19 42 42 42c0 0 1 0 1 0z m250 500c0 0 0 0 0 0 23 0 41-18 41-41 0-2 0-4 0-6l-83-750c-3-20-20-37-42-37-23 0-41 19-41 42 0 1 0 3 0 5l83 750c2 21 20 37 42 37z m250 0c0 0 0 0 0 0 23 0 41-18 41-41 0-2 0-4 0-6l-83-750c-3-20-20-37-42-37-23 0-41 19-41 42 0 1 0 3 0 5l83 750c2 21 20 37 42 37z" horiz-adv-x="1000" />

<glyph glyph-name="percent" unicode="&#xf295;" d="M791 684c0 0 1 0 1 0 23 0 42-19 42-42 0-12-5-22-13-30l-583-583c-8-8-18-13-30-13-23 0-42 19-42 42 0 12 5 22 13 30l583 583c8 8 18 12 29 13z m-520 41c80 0 146-66 146-146 0-80-66-146-146-146-80 0-146 66-146 146 0 80 66 146 146 146z m0-83c-35 0-63-28-63-63s28-62 63-62 62 27 62 62-27 63-62 63z m458-375c80 0 146-66 146-146 0-80-66-146-146-146-80 0-146 66-146 146 0 80 66 146 146 146z m0-84c-35 0-62-27-62-62s27-63 62-63 63 28 63 63-28 62-63 62z" horiz-adv-x="1000" />

<glyph glyph-name="user-circle" unicode="&#xf2bd;" d="M500 756c-224 0-406-182-406-406 0-224 182-406 406-406 224 0 406 182 406 406 0 224-182 406-406 406z m0-62c190 0 344-154 344-344 0-190-154-344-344-344-190 0-344 154-344 344 0 190 154 344 344 344z m0-94c-86 0-156-70-156-156 0-48 22-90 55-118-70-37-118-110-118-195l63 0c0 87 69 157 156 157 87 0 156-70 156-157l63 0c0 85-48 158-118 195 33 28 55 70 55 118 0 86-70 156-156 156z m0-62c52 0 94-42 94-94 0-52-42-94-94-94-52 0-94 42-94 94 0 52 42 94 94 94z" horiz-adv-x="1000" />

<glyph glyph-name="telegram" unicode="&#xf2c6;" d="M815 725c-11 0-21-3-29-7l-1 0c-8-3-51-21-115-48-64-27-148-62-231-97-165-70-328-139-328-139l2 1c0 0-11-4-23-12-6-3-13-9-18-17-6-9-11-22-9-35 3-23 17-36 28-44 10-7 21-11 21-11l0 0 152-51c7-22 47-152 56-182 6-18 12-30 18-38 4-5 8-8 12-11 2-1 4-2 6-3 1 0 1 0 2 0l-2 0c1 0 1-1 2-1 1 0 2 0 3 0 24-8 44 7 44 7l1 1 90 82 151-116 3-1c32-14 64-6 81 7 17 14 23 31 23 31l1 3 117 598c3 15 4 29 0 42-3 13-13 26-24 33-11 7-23 9-33 8z m-3-64c-1-2 0-2-1-5l0-1-116-591c0-1-1-3-3-5-3-2-5-3-15 1l-185 142-111-102 23 150c0 0 290 269 302 281 13 11 8 14 8 14 1 14-18 4-18 4l-381-236 0 1-182 61 0 0c-1 0-1 1-1 1 0 0 1 0 1 0l1 0 1 1c0 0 163 68 328 138 83 35 167 70 231 97 64 27 112 47 114 48 3 1 2 1 4 1z" horiz-adv-x="1000" />

<glyph glyph-name="trash-alt" unicode="&#xf2ed;" d="M125 642h83 667c0 0 0 0 1 0 23 0 41-19 41-42s-18-42-41-42c-1 0-1 0-1 0h-667-83c0 0 0 0-1 0-23 0-41 19-41 42s18 42 41 42c1 0 1 0 1 0z m292 166h166c69 0 125-56 125-125v-83c0 0 0 0 0-1 0-23-18-41-41-41s-42 18-42 41c0 1 0 1 0 1v83c0 24-18 42-42 42h-166c-24 0-42-18-42-42v-83c0 0 0 0 0-1 0-23-19-41-42-41s-41 18-41 41c0 1 0 1 0 1v83c0 69 56 125 125 125z m-209-166c0 0 0 0 0 0 23 0 42-18 42-41 0-1 0-1 0-1v-583c0-24 18-42 42-42h416c24 0 42 18 42 42v583c0 0 0 0 0 1 0 23 19 41 42 41s41-18 41-41c0-1 0-1 0-1v-583c0-69-56-125-125-125h-416c-69 0-125 56-125 125v583c0 0 0 0 0 1 0 22 18 41 41 41z" horiz-adv-x="1000" />

<glyph glyph-name="stopwatch" unicode="&#xf2f2;" d="M406 725l0-62 188 0 0 62z m94-94c-189 0-344-154-344-343 0-190 155-344 344-344 190 0 344 154 344 344 0 91-36 174-94 236l54 54-45 45-57-57c-56 41-127 65-202 65z m0-62c156 0 281-126 281-281 0-156-125-282-281-282-156 0-281 126-281 282 0 155 125 281 281 281z m-31-63l0-165c-19-11-31-30-31-53 0-24 12-43 31-54l0-40 62 0 0 40c19 11 32 30 32 54 0 23-13 42-32 53l0 165z" horiz-adv-x="1000" />

<glyph glyph-name="sign-out-alt" unicode="&#xf2f5;" d="M208 767h167c0 0 0 0 1 0 23 0 41-19 41-42s-18-42-41-42c-1 0-1 0-1 0h-167c-23 0-41-18-41-41v-584c0-23 18-41 41-41h167c0 0 0 0 1 0 23 0 41-19 41-42s-18-42-41-42c-1 0-1 0-1 0h-167c-68 0-125 57-125 125v584c0 68 57 125 125 125z m458-167c12 0 23-4 30-12l209-208c7-8 12-18 12-30s-5-22-12-29l-209-209c-7-8-18-13-30-13-23 0-42 19-42 42 0 12 5 23 13 30l179 179-179 179c-8 7-12 18-12 30 0 23 18 41 41 41z m-291-208h500c0 0 0 0 1 0 23 0 41-19 41-42s-18-42-41-42c-1 0-1 0-1 0h-500c0 0 0 0-1 0-23 0-41 19-41 42s18 42 41 42c1 0 1 0 1 0z" horiz-adv-x="1000" />

<glyph glyph-name="pencil-alt" unicode="&#xf303;" d="M799 803c41-2 78-21 106-48 27-28 46-65 48-106s-13-85-48-120l-563-563c-5-5-11-8-18-10l-230-63c-3-1-7-1-11-1-23 0-41 18-41 41 0 4 0 8 1 11l63 230c2 7 5 13 10 18l563 563c35 35 79 51 120 48z m-5-83c-18 1-36-4-56-24l-555-555-40-148 148 40 555 555c20 20 25 38 24 56s-10 37-24 52-33 23-52 24z" horiz-adv-x="1000" />

<glyph glyph-name="exchange-alt" unicode="&#xf362;" d="M708 850c12 0 22-4 30-12l167-167c7-7 12-18 12-29 0-12-5-22-12-30l-167-166c-8-8-18-13-30-13-23 0-42 18-42 41 0 12 5 23 13 31l137 137-137 137c-8 7-13 18-13 30 0 23 19 41 42 41z m-416-167h583c0 0 0 0 1 0 23 0 41-18 41-41s-18-42-41-42c-1 0-1 0-1 0h-583c-70 0-125-55-125-125v-83c0 0 0-1 0-1 0-23-19-42-42-42s-42 19-42 42c0 0 0 1 0 1v83c0 115 94 208 209 208z m-1-416c0 0 1 0 1 0 23 0 42-19 42-42 0-11-5-22-13-29l-137-138 137-137c8-8 13-18 13-30 0-23-19-42-42-42-11 0-22 5-30 13l-166 167c-8 7-13 18-13 29 0 12 5 22 13 30l166 167c8 7 18 12 29 12z m583 84c1 0 1 0 1 0 23 0 42-19 42-42 0 0 0 0 0-1v-83c0-115-94-208-209-208h-583c0 0 0 0-1 0-23 0-41 18-41 41s18 42 41 42c1 0 1 0 1 0h583c70 0 125 56 125 125v83c0 1 0 1 0 1 0 23 19 41 41 42z" horiz-adv-x="1000" />

<glyph glyph-name="facebook-f" unicode="&#xf39e;" d="M602 788c-123 0-196-66-196-214l0-130-156 0 0-156 156 0 0-376 157 0 0 376 125 0 31 156-156 0 0 104c0 56 18 83 70 83l86 0 0 150c-15 2-58 7-117 7z" horiz-adv-x="1000" />

<glyph glyph-name="facebook-messenger" unicode="&#xf39f;" d="M500 725c-206 0-375-160-375-359 0-106 49-200 125-266l0-145 139 70c35-11 72-19 111-19 206 0 375 161 375 360 0 199-169 359-375 359z m0-62c174 0 313-134 313-297 0-164-139-297-313-297-37 0-73 7-106 18l-13 4-68-34 0 70-12 10c-70 55-113 137-113 229 0 163 138 297 312 297z m-35-199l-189-199 169 94 90-97 187 202-165-92z" horiz-adv-x="1000" />

<glyph glyph-name="shield-alt" unicode="&#xf3ed;" d="M498 808c1 0 1 0 2 0 5 0 10-1 15-2l333-125c16-6 27-21 27-39v-292c0-143-93-257-181-333-88-77-175-121-175-121-6-3-12-4-19-4-7 0-13 1-19 4 0 0-87 44-175 121-88 76-181 190-181 333v292c0 18 11 33 27 39l333 125c4 1 9 2 13 2z m2-86l-292-109v-263c0-106 74-202 153-271 69-61 124-87 139-96 16 9 70 35 139 96 79 69 153 165 153 271v263z" horiz-adv-x="1000" />

<glyph glyph-name="shipping-fast" unicode="&#xf48b;" d="M0 663l0-63 594 0 0-469-193 0c-13 54-62 94-120 94-58 0-106-40-120-94l-36 0 0 157-62 0 0-219 98 0c14-54 62-94 120-94 58 0 107 40 120 94l260 0c14-54 62-94 120-94 58 0 107 40 120 94l99 0 0 255-2 5-62 187-7 22-273 0 0 125z m31-125l0-63 282 0 0 63z m625-63l228 0 54-160 0-184-37 0c-13 54-62 94-120 94-58 0-106-40-120-94l-5 0z m-593-62l0-63 187 0 0 63z m218-250c35 0 63-28 63-63 0-35-28-62-63-62-35 0-62 27-62 62 0 35 27 63 62 63z m500 0c35 0 63-28 63-63 0-35-28-62-63-62-35 0-62 27-62 62 0 35 27 63 62 63z" horiz-adv-x="1000" />

<glyph glyph-name="comment-dots" unicode="&#xf4ad;" d="M94 694l0-563 156 0 0-158 199 158 457 0 0 563z m62-63l688 0 0-437-417 0-114-91 0 91-157 0z m157-156c-35 0-63-28-63-62 0-35 28-63 63-63 34 0 62 28 62 63 0 34-28 62-62 62z m187 0c-34 0-62-28-62-62 0-35 28-63 62-63 35 0 63 28 63 63 0 34-28 62-63 62z m188 0c-35 0-63-28-63-62 0-35 28-63 63-63 34 0 62 28 62 63 0 34-28 62-62 62z" horiz-adv-x="1000" />

<glyph glyph-name="money-check" unicode="&#xf53c;" d="M63 631l0-562 875 0 0 562-875 0z m62-62l750 0 0-438-750 0 0 438z m63-63l0-62 312 0 0 62-312 0z m437 0l0-156 188 0 0 156-188 0z m-437-93l0-63 218 0 0 63-218 0z m78-94c-19 0-33-11-41-21-9-9-16-20-21-32-10-23-16-48-16-72l62 0c0 10 5 32 12 47 2 4 4 6 6 8 2-3 4-5 6-9 5-8 10-16 16-25 6-8 14-22 37-22 19-1 24 6 30 11 6 4 11 8 15 12 3 3 6 5 8 7 1-1 4-3 21-11 21-9 53-18 99-18l0 62c-38 0-58 7-73 13-15 6-26 19-52 19-19 0-23-8-29-12-5-4-9-8-13-12-2 3-3 5-5 8-5 8-11 18-20 27-9 9-24 20-42 20z m359-63l0-62 188 0 0 62-188 0z" horiz-adv-x="1000" />

<glyph glyph-name="receipt" unicode="&#xf543;" d="M219 682l0-238-125 0 0-438 812 0 0 438-125 0 0 238-93-47-63 31-62-31-63 31-62-31-63 31-62-31z m156-86l63-31 62 31 63-31 62 31 63-31 31 16 0-262-438 0 0 262 32-16z m-219-215l63 0 0-125 562 0 0 125 63 0 0-312-688 0z m125-187l0-63 63 0 0 63z m125 0l0-63 63 0 0 63z m125 0l0-63 63 0 0 63z m125 0l0-63 63 0 0 63z" horiz-adv-x="1000" />

<glyph glyph-name="ruler" unicode="&#xf545;" d="M642 738l-530-530 246-246 530 530z m0-89l157-157-441-441-157 157 36 37 68-68 45 44-69 69 37 36 28-28 44 45-28 27 37 37 68-68 44 44-68 68 38 37 26-28 45 44-28 28 37 37 68-69 44 45-67 68z" horiz-adv-x="1000" />

<glyph glyph-name="store" unicode="&#xf54e;" d="M125 725l0-114-94-125 0-11c0-51 43-94 94-94l0-406 750 0 0 406c51 0 94 43 94 94l0 11-94 125 0 114-750 0z m63-62l625 0 0-32-625 0 0 32z m-16-94l656 0 75-101c-3-13-13-24-28-24-17 0-31 14-31 31l-63 0c0-17-14-31-31-31-17 0-31 14-31 31l-63 0c0-17-14-31-31-31-17 0-31 14-31 31l-63 0c0-17-14-31-31-31-17 0-31 14-31 31l-63 0c0-17-14-31-31-31-17 0-31 14-31 31l-63 0c0-17-14-31-31-31-17 0-31 14-31 31l-63 0c0-17-14-31-31-31-15 0-25 11-28 24l75 101z m16-163c16-15 38-25 62-25 24 0 46 10 63 25 16-15 38-25 62-25 24 0 46 10 63 25 16-15 38-25 62-25 24 0 46 10 63 25 16-15 38-25 62-25 24 0 46 10 63 25 16-15 38-25 62-25 24 0 46 10 63 25l0-212-625 0 0 212z m0-275l625 0 0-93-625 0 0 93z" horiz-adv-x="1000" />

<glyph glyph-name="map-marked-alt" unicode="&#xf5a0;" d="M688 756c-104 0-188-84-188-187 0-31 12-63 27-98 16-35 35-72 55-106 40-69 80-126 80-126l26-37 25 37c0 0 40 57 80 126 20 34 39 71 55 106 15 35 27 67 27 98 0 103-84 187-187 187z m-314-60l-249-107 0-599 251 108 250-94 249 107 0 272c-20-38-42-75-62-107l0-124-157-67 0 51-46 67c-4 7-10 15-16 24l0-145-188 71 0 465 34-13c4 21 9 41 17 60z m314-2c69 0 125-56 125-125 0-12-8-41-22-72-14-32-34-68-53-101-25-44-36-60-50-81-15 21-26 37-51 81-19 33-39 69-53 101-14 31-21 60-21 72 0 69 55 125 125 125z m-344-78l0-464-156-67 0 463z m344 0c-26 0-47-21-47-47 0-26 21-47 47-47 25 0 46 21 46 47 0 26-21 47-46 47z" horiz-adv-x="1000" />

<glyph glyph-name="blog" unicode="&#xf781;" d="M425 662c-25 2-48-18-50-43-2-26 18-48 44-48 155-11 290-145 300-300 1-25 22-44 47-44 1 0 2 0 3 0 25 2 45 24 43 50-13 198-186 372-387 385z m13 188c-35 0-63-28-63-62s28-63 63-63c241 0 437-196 437-437 0-35 28-63 63-63s62 28 62 63c0 310-252 562-562 562z m-101-443c-29 6-56-17-56-46v-99c0-20 14-36 33-41 35-13 61-48 61-86 0-52-42-92-94-92-51 0-93 42-93 92v481c0 26-21 45-47 45l-94 0c-26 2-47-20-47-45v-483c0-175 160-313 342-275 106 23 192 109 214 215 34 160-72 305-219 334z" horiz-adv-x="1000" />
</font>
</defs>
</svg>
